<?xml version="1.0" standalone="no"?><!DOCTYPE svg PUBLIC "-//W3C//DTD SVG 1.1//EN" "http://www.w3.org/Graphics/SVG/1.1/DTD/svg11.dtd"><svg t="1730249423010" class="icon" viewBox="0 0 1027 1024" version="1.1" xmlns="http://www.w3.org/2000/svg" p-id="7792" xmlns:xlink="http://www.w3.org/1999/xlink" width="128.375" height="128"><path d="M617.6 809.6c-22.4 6.4-44.8 9.6-70.4 9.6 25.6-3.2 48-6.4 70.4-9.6-28.8 6.4-57.6 9.6-92.8 9.6 35.2-3.2 64-6.4 92.8-9.6 307.2-67.2 332.8-467.2 332.8-467.2C992 320 1024 275.2 1024 220.8c0-76.8-60.8-137.6-137.6-137.6-44.8 0-83.2 22.4-108.8 54.4-76.8-54.4-169.6-86.4-268.8-86.4-96 0-188.8 32-262.4 83.2-25.6-32-64-51.2-105.6-51.2C64 83.2 3.2 147.2 3.2 220.8c0 51.2 25.6 92.8 67.2 118.4-32 67.2-51.2 137.6-51.2 211.2 0 252.8 220.8 425.6 489.6 425.6s489.6-169.6 489.6-425.6c0-44.8-6.4-89.6-19.2-134.4 0 3.2-16 329.6-361.6 393.6zM182.4 531.2c0-208 176-313.6 326.4-313.6 150.4 0 326.4 105.6 326.4 313.6 0 169.6-163.2 288-326.4 288s-326.4-118.4-326.4-288z" fill="#F90336" p-id="7793"></path></svg>