<?xml version="1.0" standalone="no"?><!DOCTYPE svg PUBLIC "-//W3C//DTD SVG 1.1//EN" "http://www.w3.org/Graphics/SVG/1.1/DTD/svg11.dtd"><svg t="1730249966329" class="icon" viewBox="0 0 1024 1024" version="1.1" xmlns="http://www.w3.org/2000/svg" p-id="14800" xmlns:xlink="http://www.w3.org/1999/xlink" width="128" height="128"><path d="M796.444444 56.888889a170.666667 170.666667 0 0 1 170.666667 170.666667v568.888888a170.666667 170.666667 0 0 1-170.666667 170.666667H227.555556a170.666667 170.666667 0 0 1-170.666667-170.666667V227.555556a170.666667 170.666667 0 0 1 170.666667-170.666667h568.888888z m-118.613333 512.512c-12.117333 0-24.234667 1.649778-36.352 4.949333a101.262222 101.262222 0 0 0-32.540444 15.246222c-9.614222 6.826667-17.351111 15.36-23.324445 25.656889a71.793778 71.793778 0 0 0-8.874666 36.408889c0 12.401778 2.332444 23.04 6.997333 31.800889 4.721778 8.704 10.808889 16.042667 18.375111 21.845333 7.566222 5.859556 16.156444 10.638222 25.770667 14.279112 9.557333 3.697778 19.399111 6.826667 29.525333 9.329777 9.841778 2.844444 19.569778 5.347556 29.127111 7.623111 9.614222 2.275556 18.204444 4.949333 25.770667 7.964445 7.566222 3.072 13.653333 6.883556 18.375111 11.491555a23.893333 23.893333 0 0 1 6.997333 17.863112c0 6.826667-1.763556 12.515556-5.290666 16.952888a37.205333 37.205333 0 0 1-13.255112 10.467556 59.050667 59.050667 0 0 1-17.066666 5.12c-5.688889 0.853333-11.377778 1.308444-17.066667 1.365333a89.884444 89.884444 0 0 1-22.698667-2.844444 56.376889 56.376889 0 0 1-19.114666-8.760889 43.235556 43.235556 0 0 1-13.084445-15.416889 50.062222 50.062222 0 0 1-4.892444-23.267555H567.751111l0.227556 9.784888c0.853333 12.686222 3.811556 23.893333 8.817777 33.621334 6.314667 12.231111 14.848 22.186667 25.6 30.151111a108.088889 108.088889 0 0 0 37.091556 17.294222c13.994667 3.640889 28.444444 5.518222 43.349333 5.518222 18.432 0 34.645333-2.161778 48.64-6.485333 13.994667-4.323556 25.770667-10.353778 35.214223-18.090667 9.443556-7.736889 16.611556-16.952889 21.390222-27.591111 4.778667-10.695111 7.168-22.186667 7.168-34.702222 0-15.189333-3.185778-27.704889-9.671111-37.489778a80.896 80.896 0 0 0-22.869334-23.381333 100.465778 100.465778 0 0 0-26.737777-12.743111 256.113778 256.113778 0 0 0-20.992-5.575111 4150.784 4150.784 0 0 1-41.073778-10.638223 151.779556 151.779556 0 0 1-24.576-8.362666 27.079111 27.079111 0 0 1-11.946667-9.102222 24.519111 24.519111 0 0 1-3.015111-12.970667c0-5.859556 1.251556-10.695111 3.754667-14.506667a32.995556 32.995556 0 0 1 9.671111-9.500444 38.343111 38.343111 0 0 1 13.084444-5.347556c4.778667-1.024 9.557333-1.536 14.392889-1.536a102.4 102.4 0 0 1 20.252445 1.934222c6.144 1.251556 11.662222 3.413333 16.497777 6.485334a33.564444 33.564444 0 0 1 11.491556 12.515555c3.128889 6.257778 4.892444 13.198222 5.12 20.195556h57.571555l-0.398222-9.102222a78.051556 78.051556 0 0 0-8.533333-31.061334 77.880889 77.880889 0 0 0-24.007111-27.192889 101.262222 101.262222 0 0 0-34.702222-15.473777 171.178667 171.178667 0 0 0-40.675556-4.721778h-0.056889zM316.928 568.32a142.222222 142.222222 0 1 0 0 284.444444 142.222222 142.222222 0 0 0 0-284.444444z m0 56.888889a85.333333 85.333333 0 1 1 0 170.666667 85.333333 85.333333 0 0 1 0-170.666667zM258.332444 170.666667H199.111111v284.444444h59.221333V332.401778H367.502222V455.111111H426.666667V170.666667H367.445333v109.169777H258.275556V170.666667h0.056888z m371.086223 0H540.444444v284.444444h55.239112V231.196444L653.937778 455.111111h57.230222l58.481778-223.914667V455.111111h55.239111V170.666667h-89.201778l-52.792889 193.991111-53.475555-193.991111z" fill="#172634" p-id="14801"></path></svg>