<?xml version="1.0" standalone="no"?><!DOCTYPE svg PUBLIC "-//W3C//DTD SVG 1.1//EN" "http://www.w3.org/Graphics/SVG/1.1/DTD/svg11.dtd"><svg t="1730249716711" class="icon" viewBox="0 0 1024 1024" version="1.1" xmlns="http://www.w3.org/2000/svg" p-id="10051" xmlns:xlink="http://www.w3.org/1999/xlink" width="128" height="128"><path d="M412.08 753.87Q297 855.06 220.14 855.13t-117.27-95.07l309.21-6.24z m202.16 0l309.21 6.19Q883 855.13 806.18 855.13T614.24 753.82zM15.91 489.1q178 95 228.49 125.34t171.89 108.88q-193.1 12-252.75 0.32c-45.49-8.89-80.9-28.29-111.22-58.66Q-8.22 604.44 15.91 489.1z m994.5 0Q1034.56 604.41 974 665c-30.31 30.37-65.72 49.77-111.22 58.66q-59.64 11.7-252.7-0.32 121.27-78.55 171.85-108.88t228.48-125.36zM161.48 228.27q93.08 123.36 127.41 175.94t155 283.38Q205.88 580.55 113 475c-44.49-50.54-44.49-133.46 6-204.23q11-15.4 42.47-42.47z m703.31 0q31.51 27.1 42.47 42.47c50.54 70.77 50.54 153.65 6.06 204.26q-92.88 105.6-331 212.62 120.66-230.8 155-283.43t127.47-175.92zM440.6 84.72q46.51 137.52 52.56 194.1T483.07 659Q280.81 367.83 280.81 236.39T440.6 84.72z m145.21 0Q745.55 105 745.55 236.39T543.34 659q-16.17-323.55-10.09-380.16t52.56-194.1z" fill="#FE0000" p-id="10052"></path></svg>