<?xml version="1.0" standalone="no"?><!DOCTYPE svg PUBLIC "-//W3C//DTD SVG 1.1//EN" "http://www.w3.org/Graphics/SVG/1.1/DTD/svg11.dtd"><svg t="1730250281487" class="icon" viewBox="0 0 1024 1024" version="1.1" xmlns="http://www.w3.org/2000/svg" p-id="16831" xmlns:xlink="http://www.w3.org/1999/xlink" width="128" height="128"><path d="M690.1 65.2c148 0 267.9 119.9 267.9 267.9v357.2c0 148-119.9 267.9-267.9 267.9H332.9C185 958.2 65 838.3 65 690.3V333.1C65 185.2 185 65.2 332.9 65.2h357.2zM526.9 344.8H264.4c-1 0-1.9 0.4-2.6 1.1-0.7 0.7-1.1 1.6-1.1 2.6v324.9c0 1 0.4 1.9 1.1 2.6 0.7 0.7 1.6 1.1 2.6 1.1h70.1c2 0 3.7-1.7 3.7-3.7v-255c0-2.1 1.6-3.8 3.7-3.8h150.8c28.3 0 51.3 23.6 51.3 52.6v206.2c0 2.1 1.6 3.7 3.6 3.7h69.1c1 0 1.9-0.4 2.6-1.1 0.7-0.7 1.1-1.6 1-2.6V440.6c0-52.9-41.8-95.8-93.4-95.8zM475 474.2h-70.1c-1 0-1.9 0.4-2.6 1.1-0.7 0.7-1.1 1.7-1.1 2.6v195.4c0 2.1 1.6 3.7 3.7 3.7H475c1 0 1.9-0.4 2.6-1.1 0.7-0.7 1.1-1.7 1.1-2.7V478c0-1-0.4-1.9-1.1-2.7-0.7-0.7-1.6-1.1-2.6-1.1z m280.3-129.4h-70.1c-2 0-3.7 1.7-3.7 3.8v324.9c0 2.1 1.7 3.7 3.7 3.7h70.1c2 0 3.7-1.7 3.7-3.7v-325c0-1-0.4-1.9-1.1-2.7-0.6-0.6-1.6-1-2.6-1z m0 0" fill="#FFA500" p-id="16832"></path></svg>