<?xml version="1.0" standalone="no"?><!DOCTYPE svg PUBLIC "-//W3C//DTD SVG 1.1//EN" "http://www.w3.org/Graphics/SVG/1.1/DTD/svg11.dtd"><svg t="1730250183230" class="icon" viewBox="0 0 1024 1024" version="1.1" xmlns="http://www.w3.org/2000/svg" p-id="15806" xmlns:xlink="http://www.w3.org/1999/xlink" width="128" height="128"><path d="M417.42 123.21c48.21-9.59 98.22-9.98 146.59-1.25 65.77 12.14 128.5 41.19 179.76 84.24 28.1 23.57 53.02 50.98 73.54 81.39 42.21 62.68 65.95 137.79 66.51 213.42 1.06 67.77-16.35 135.66-49.45 194.78-12.43-6.07-26.09-9.76-39.91-10.37-2.5-28.52-13.98-56.32-33.15-77.66-18.43-21.05-43.78-35.75-71.06-41.79 5.7-21.13 9.12-43 8.15-64.93a198.81 198.81 0 0 0-12.2-63.26c-12.42-35.4-35.5-66.79-64.8-90.1-39.23-31.31-90.42-47.06-140.45-43.52-23.52 1.42-46.65 7.38-68.29 16.64-44.6 19.37-81.69 55.43-102.31 99.46-20.08 42.57-25.07 92.16-13.15 137.75 9.19 36.85 29.08 70.95 56.67 97.06 17.11 16.47 37.21 29.77 58.96 39.3-26.76 25.85-40.05 64.9-34.08 101.69 5.39 37.49 30.36 71.41 64.55 87.72 11.92 5.97 24.93 9.42 38.09 11.29-13.13 0.28-26.25-1.4-39.29-2.91-72.22-9.7-141.65-40-197.57-86.78-28.69-23.98-54.03-51.99-74.86-83.06-36.25-54.45-58.78-118.05-64.25-183.27-3.06-36.45-1.14-73.34 5.98-109.23 12.69-63.51 41.19-123.91 82.79-173.6 34.76-41.62 78.07-76.21 126.83-100.07a392.616 392.616 0 0 1 96.4-32.94z" fill="#138BFC" p-id="15807"></path><path d="M592.57 582.47c28.8-17.88 64.6-23.74 97.68-16.5 27.28 6.04 52.63 20.74 71.06 41.79 19.17 21.34 30.65 49.14 33.15 77.66 13.82 0.61 27.48 4.3 39.91 10.37 20.93 10.08 38.32 27.39 48.45 48.31 11.11 22.36 13.72 48.78 7.31 72.9-7.61 29.87-29.16 55.84-57.2 68.69-12.44 6.11-26.18 8.87-39.89 10.14-91.66-0.16-183.34-0.04-275-0.08-12.22-0.11-24.5 0.78-36.65-0.68-13.16-1.87-26.17-5.32-38.09-11.29-34.19-16.31-59.16-50.23-64.55-87.72-5.97-36.79 7.32-75.84 34.08-101.69 4.07-3.79 8.21-7.52 12.78-10.71 30.06-22.29 71.06-28.53 106.44-16.39 7.54-34.93 29.89-66.38 60.52-84.8z" fill="#FFFFFF" p-id="15808"></path></svg>