<?xml version="1.0" standalone="no"?><!DOCTYPE svg PUBLIC "-//W3C//DTD SVG 1.1//EN" "http://www.w3.org/Graphics/SVG/1.1/DTD/svg11.dtd"><svg t="1730250472822" class="icon" viewBox="0 0 1024 1024" version="1.1" xmlns="http://www.w3.org/2000/svg" p-id="23152" xmlns:xlink="http://www.w3.org/1999/xlink" width="128" height="128"><path d="M48.872727 465.547636c0 255.162182 207.127273 462.056727 462.661818 462.056728 255.488 0 462.615273-206.894545 462.615273-462.056728 0-255.208727-207.127273-462.103273-462.661818-462.103272C256 3.444364 48.872727 210.385455 48.872727 465.547636" fill="#FFFFFF" p-id="23153"></path><path d="M511.534545 5.771636C257.256727 5.771636 51.2 211.595636 51.2 465.501091c0 253.952 206.103273 459.776 460.334545 459.776 254.184727 0 460.288-205.824 460.288-459.776-0.325818-253.765818-206.196364-459.403636-460.334545-459.729455m0 924.16C254.696727 929.931636 46.545455 722.013091 46.545455 465.501091 46.545455 209.035636 254.696727 1.117091 511.534545 1.117091c256.744727 0 464.942545 207.918545 464.942546 464.384-0.279273 256.372364-208.290909 464.151273-464.989091 464.430545" fill="#FBFBFB" p-id="23154"></path><path d="M681.332364 841.681455c170.123636-81.501091 252.276364-218.344727 246.458181-410.53091C907.310545 114.036364 523.264-13.312 436.596364 183.854545c-40.820364 180.596364 206.010182 160.581818 303.290181 294.958546 87.04 122.507636 67.490909 243.479273-58.600727 362.868364" fill="#3EA1FC" p-id="23155"></path><path d="M337.92 90.018909C167.749818 171.52 85.643636 308.363636 91.415273 500.549818c20.48 317.114182 404.48 444.462545 491.147636 247.296 40.913455-180.596364-205.963636-160.581818-303.197091-294.912-87.04-122.693818-67.537455-243.712 58.461091-362.914909" fill="#3EA1FC" p-id="23156"></path></svg>