<?xml version="1.0" standalone="no"?><!DOCTYPE svg PUBLIC "-//W3C//DTD SVG 1.1//EN" "http://www.w3.org/Graphics/SVG/1.1/DTD/svg11.dtd"><svg t="1730249123100" class="icon" viewBox="0 0 1024 1024" version="1.1" xmlns="http://www.w3.org/2000/svg" p-id="6799" xmlns:xlink="http://www.w3.org/1999/xlink" width="128" height="128"><path d="M48 48m139 0l650 0q139 0 139 139l0 650q0 139-139 139l-650 0q-139 0-139-139l0-650q0-139 139-139Z" fill="#FF9500" p-id="6800"></path><path d="M437.742 815c-55.505 0-100.5-44.995-100.5-100.5S382.237 614 437.742 614s100.5 44.995 100.5 100.5S493.247 815 437.742 815z m0-55c25.129 0 45.5-20.371 45.5-45.5s-20.371-45.5-45.5-45.5-45.5 20.371-45.5 45.5 20.371 45.5 45.5 45.5z m-136.656-12.72c14.731 61.636 70.08 107.499 136.177 107.72h-0.02C228.242 863 172 703 172 675s0-110 76.818-204c76.817-94 76.424-107 48.424-165-18.667-38.667-60.414-42-125.242-10 60.161-85.333 130.575-128 211.242-128 65 2 155 58 155 128s-29 127-55 156-124 71-173 134c-32.667 42-37 100-13 174 1.314-4.336 2.595-8.576 3.844-12.72z m35.963-130.766c0.129-1.028 0.193-1.866 0.193-2.514 0-14 29-49.223 69-69s87-23 172 29 57 218 57 219c48 0 78.333 16.333 91 49-51.797 3.237-144.154 7.418-277.069 12.542 72.25-5.818 129.07-66.294 129.07-140.042 0-77.596-62.905-140.5-140.5-140.5-39.488 0-75.17 16.29-100.694 42.514zM443.242 503c43.333-30.667 108.333-26.333 195 13 130 59 112 48 165.314 58 53.314 10 47.686 48 46.686 48-15.333-12-52.333-6-111 18h-64c-8-17.333-26.333-42.667-55-76s-87.667-53.667-177-61z m95-44c70.667-31.333 115.333-56.333 134-75 12-190 64-29 66-27 81.333 38 118.885 95.667 112.655 173-57.103 4-91.655 4-103.655 0-50.748-29.333-120.415-53-209-71z" fill="#FFFFFF" p-id="6801"></path></svg>