<?xml version="1.0" encoding="utf-8"?>
<!-- Generator: Adobe Illustrator 23.0.5, SVG Export Plug-In . SVG Version: 6.00 Build 0)  -->
<svg version="1.1" id="图层_1" xmlns="http://www.w3.org/2000/svg" xmlns:xlink="http://www.w3.org/1999/xlink" x="0px" y="0px"
	 viewBox="0 0 500 500" enable-background="new 0 0 500 500" xml:space="preserve">
<g>
	<path fill="none" d="M410.4,412.5c25.3-25.3,0.1-124.2-97.1-221.5c-74-74-149-106.3-191.8-106.3c-13.4,0-23.6,3.2-29.7,9.2
		c-3.1,3.1-5.4,7.2-7,12.4c-0.5,2.6-0.9,5.3-1.2,8.1c0.3-2.7,0.7-5.4,1.2-8.1C73.7,143.3,103.5,230,189,315.4
		c50.1,50.1,100.6,81,141.2,95.9c-4.3-1.7-8.7-3.5-13-5.5c4.4,2,8.7,3.8,13,5.5c19.5,7.1,36.7,10.5,50.6,10.5
		C394.2,421.7,404.4,418.6,410.4,412.5z"/>
	<linearGradient id="SVGID_1_" gradientUnits="userSpaceOnUse" x1="251.1264" y1="487.4762" x2="251.1264" y2="19">
		<stop  offset="0" style="stop-color:#0BA0F2"/>
		<stop  offset="1" style="stop-color:#2653F5"/>
	</linearGradient>
	<path fill="url(#SVGID_1_)" d="M450.3,263.6c24.8,60.2,24.6,114.4-6,142.3c-25.6,23.3-67.5,23.6-114.1,5.3
		c-40.7-14.8-91.2-45.8-141.2-95.9C103.5,230,73.7,143.3,84.9,106.3C89.3,81.8,100,62,117.4,49.2c28.9-21.3,71-19.2,116.7,1.4
		c-77.2-39.7-148.4-43.3-188.7-3c-61.9,61.9-20.1,197,97.1,314.3c80.7,80.7,169.9,125.7,237.8,125.7c30.8,0,57.2-9.2,76.5-28.5
		C498.3,417.5,493.3,343.3,450.3,263.6z"/>
	<linearGradient id="SVGID_2_" gradientUnits="userSpaceOnUse" x1="276.5164" y1="424.2172" x2="276.5164" y2="34.1329">
		<stop  offset="0" style="stop-color:#7D2670"/>
		<stop  offset="1" style="stop-color:#FF3667"/>
	</linearGradient>
	<path fill="url(#SVGID_2_)" d="M117.4,49.2C100,62,89.3,81.8,84.9,106.3c1.5-5.1,3.9-9.3,7-12.4c6-6,16.3-9.2,29.7-9.2
		c42.8,0,117.8,32.3,191.8,106.3c97.2,97.2,122.5,196.1,97.1,221.5c-6,6-16.3,9.2-29.7,9.2c-13.8,0-31.1-3.4-50.6-10.5
		c46.6,18.3,88.5,17.9,114.1-5.3c30.7-27.9,30.8-82.1,6-142.3c-21.2-39.4-51.8-80.2-90.6-119c-41-41-84.2-72.7-125.6-94.1
		C188.4,30,146.3,27.9,117.4,49.2z"/>
	<path fill="none" d="M91.8,412.5c25.3,25.3,124.2,0.1,221.5-97.1c74-74,106.3-149,106.3-191.8c0-13.4-3.2-23.6-9.2-29.7
		c-3.1-3.1-7.2-5.4-12.4-7c-2.6-0.5-5.3-0.9-8.1-1.2c2.7,0.3,5.4,0.7,8.1,1.2c-37-11.2-123.7,18.7-209.1,104.1
		c-50.1,50.1-81,100.6-95.9,141.2c1.7-4.3,3.5-8.7,5.5-13c-2,4.4-3.8,8.7-5.5,13C86,351.8,82.6,369,82.6,382.9
		C82.6,396.3,85.8,406.5,91.8,412.5z"/>
	<linearGradient id="SVGID_3_" gradientUnits="userSpaceOnUse" x1="16.8883" y1="253.2381" x2="485.3645" y2="253.2381">
		<stop  offset="0" style="stop-color:#0BA0F2"/>
		<stop  offset="1" style="stop-color:#2653F5"/>
	</linearGradient>
	<path fill="url(#SVGID_3_)" d="M240.7,452.4c-60.2,24.8-114.4,24.6-142.3-6c-23.3-25.6-23.6-67.5-5.3-114.1
		c14.8-40.7,45.8-91.2,95.9-141.2C274.4,105.7,361.1,75.8,398.1,87c24.5,4.5,44.3,15.2,57.1,32.5c21.3,28.9,19.2,71-1.4,116.7
		c39.7-77.2,43.3-148.4,3-188.7c-61.9-61.9-197-20.1-314.3,97.1C61.8,225.4,16.9,314.5,16.9,382.5c0,30.8,9.2,57.2,28.5,76.5
		C86.8,500.4,161,495.4,240.7,452.4z"/>
	<g>
		<linearGradient id="SVGID_4_" gradientUnits="userSpaceOnUse" x1="360.6801" y1="404.1233" x2="360.6801" y2="86.989">
			<stop  offset="0" style="stop-color:#FF3667"/>
			<stop  offset="1" style="stop-color:#7D2670"/>
		</linearGradient>
		<path fill="url(#SVGID_4_)" d="M251.1,368.3c21.6,15.4,42.4,27.2,61.6,35.8c15.8-12.8,31.6-26.9,47-42.3
			c41-41,72.7-84.2,94.1-125.6c20.6-45.7,22.7-87.8,1.4-116.7c-12.8-17.3-32.6-28-57.1-32.5c5.1,1.5,9.3,3.9,12.4,7
			c6,6,9.2,16.3,9.2,29.7c0,42.8-32.3,117.8-106.3,191.8C292.4,336.3,271.4,353.9,251.1,368.3z"/>
		<linearGradient id="SVGID_5_" gradientUnits="userSpaceOnUse" x1="165.6355" y1="470.2672" x2="165.6355" y2="332.3046">
			<stop  offset="0" style="stop-color:#FF3667"/>
			<stop  offset="1" style="stop-color:#7D2670"/>
		</linearGradient>
		<path fill="url(#SVGID_5_)" d="M189.6,404.1c-46.7,20.9-83.6,22.5-97.7,8.4c-6-6-9.2-16.3-9.2-29.7c0-13.8,3.4-31.1,10.5-50.6
			c-18.3,46.6-17.9,88.5,5.3,114.1c27.9,30.7,82.1,30.8,142.3,6c3.5-1.9,6.9-3.8,10.4-5.8C230.7,434.8,210.1,420.6,189.6,404.1z"/>
	</g>
</g>
</svg>
